<svg width="36" height="36" viewBox="0 0 36 36" fill="none" xmlns="http://www.w3.org/2000/svg">
<path d="M18.0049 31.5C16.1381 31.5 14.383 31.1458 12.7395 30.4373C11.0963 29.7288 9.66675 28.7673 8.451 27.5527C7.23525 26.3383 6.27287 24.91 5.56387 23.268C4.85462 21.6263 4.5 19.8719 4.5 18.0049C4.5 16.1381 4.85425 14.383 5.56275 12.7395C6.27125 11.0962 7.23275 9.66675 8.44725 8.451C9.66175 7.23525 11.09 6.27287 12.732 5.56387C14.3737 4.85462 16.1281 4.5 17.9951 4.5C19.8619 4.5 21.617 4.85425 23.2605 5.56275C24.9038 6.27125 26.3333 7.23275 27.549 8.44725C28.7648 9.66175 29.7271 11.09 30.4361 12.732C31.1454 14.3738 31.5 16.1281 31.5 17.9951C31.5 19.8619 31.1458 21.617 30.4373 23.2605C29.7288 24.9038 28.7673 26.3333 27.5527 27.549C26.3383 28.7648 24.91 29.7271 23.268 30.4361C21.6262 31.1454 19.8719 31.5 18.0049 31.5ZM16.5 29.925V27C15.675 27 14.9688 26.7063 14.3813 26.1188C13.7938 25.5312 13.5 24.825 13.5 24V22.5L6.3 15.3C6.225 15.75 6.15625 16.2 6.09375 16.65C6.03125 17.1 6 17.55 6 18C6 21.025 6.99375 23.675 8.98125 25.95C10.9688 28.225 13.475 29.55 16.5 29.925ZM26.85 26.1C27.35 25.55 27.8 24.9563 28.2 24.3188C28.6 23.6813 28.9313 23.0188 29.1938 22.3313C29.4563 21.6438 29.6563 20.9375 29.7938 20.2125C29.9313 19.4875 30 18.75 30 18C30 15.5355 29.3235 13.2847 27.9705 11.2478C26.6178 9.21075 24.7943 7.74225 22.5 6.84225V7.5C22.5 8.325 22.2063 9.03125 21.6188 9.61875C21.0312 10.2063 20.325 10.5 19.5 10.5H16.5V13.5C16.5 13.925 16.3563 14.2812 16.0688 14.5688C15.7812 14.8563 15.425 15 15 15H12V18H21C21.425 18 21.7812 18.1438 22.0688 18.4313C22.3563 18.7188 22.5 19.075 22.5 19.5V24H24C24.65 24 25.2375 24.1938 25.7625 24.5813C26.2875 24.9688 26.65 25.475 26.85 26.1Z" fill="white"/>
</svg>
