<svg width="38" height="38" viewBox="0 0 38 38" fill="none" xmlns="http://www.w3.org/2000/svg">
<path d="M11.3268 26.6732L21.314 21.314L26.6732 11.3268L16.686 16.686L11.3268 26.6732ZM19 20.5833C18.5514 20.5833 18.1753 20.4316 17.8719 20.1281C17.5684 19.8247 17.4167 19.4486 17.4167 19C17.4167 18.5514 17.5684 18.1753 17.8719 17.8719C18.1753 17.5684 18.5514 17.4167 19 17.4167C19.4486 17.4167 19.8247 17.5684 20.1281 17.8719C20.4316 18.1753 20.5833 18.5514 20.5833 19C20.5833 19.4486 20.4316 19.8247 20.1281 20.1281C19.8247 20.4316 19.4486 20.5833 19 20.5833ZM19.0051 33.25C17.0347 33.25 15.1821 32.8761 13.4473 32.1282C11.7127 31.3803 10.2038 30.3654 8.9205 29.0835C7.63721 27.8015 6.62137 26.2939 5.87298 24.5607C5.12433 22.8277 4.75 20.9759 4.75 19.0051C4.75 17.0347 5.12393 15.1821 5.87179 13.4472C6.61965 11.7127 7.63457 10.2038 8.91654 8.9205C10.1985 7.63721 11.7061 6.62137 13.4393 5.87298C15.1723 5.12433 17.0241 4.75 18.9949 4.75C20.9653 4.75 22.8179 5.12393 24.5528 5.87179C26.2873 6.61965 27.7962 7.63457 29.0795 8.91654C30.3628 10.1985 31.3786 11.7061 32.127 13.4393C32.8757 15.1723 33.25 17.0241 33.25 18.9949C33.25 20.9653 32.8761 22.8179 32.1282 24.5527C31.3803 26.2873 30.3654 27.7962 29.0835 29.0795C27.8015 30.3628 26.2939 31.3786 24.5607 32.127C22.8277 32.8757 20.9759 33.25 19.0051 33.25Z" fill="white"/>
</svg>
