<svg width="48" height="48" viewBox="0 0 48 48" fill="none" xmlns="http://www.w3.org/2000/svg">
<path d="M24 22.769C22.35 22.769 20.9375 22.1815 19.7625 21.0065C18.5875 19.8315 18 18.419 18 16.769C18 15.119 18.5875 13.7065 19.7625 12.5315C20.9375 11.3565 22.35 10.769 24 10.769C25.65 10.769 27.0625 11.3565 28.2375 12.5315C29.4125 13.7065 30 15.119 30 16.769C30 18.419 29.4125 19.8315 28.2375 21.0065C27.0625 22.1815 25.65 22.769 24 22.769ZM10 37.231V33.9385C10 33.1129 10.2403 32.3404 10.721 31.621C11.202 30.902 11.8488 30.3437 12.6615 29.946C14.5488 29.041 16.4373 28.3622 18.327 27.9095C20.2167 27.4572 22.1077 27.231 24 27.231C25.8923 27.231 27.7833 27.4572 29.673 27.9095C31.5627 28.3622 33.4512 29.041 35.3385 29.946C36.1512 30.3437 36.798 30.902 37.279 31.621C37.7597 32.3404 38 33.1129 38 33.9385V37.231H10Z" fill="white"/>
</svg>
