<svg width="38" height="38" viewBox="0 0 38 38" fill="none" xmlns="http://www.w3.org/2000/svg">
<path d="M8.09987 31.6667C7.37101 31.6667 6.76248 31.4226 6.27428 30.9344C5.78609 30.4462 5.54199 29.8378 5.54199 29.1092V10.4745H7.12533V29.1092C7.12533 29.3528 7.22679 29.576 7.42972 29.7789C7.63265 29.9819 7.85603 30.0833 8.09987 30.0833H26.7341V31.6667H8.09987ZM12.8499 26.9167C12.121 26.9167 11.5125 26.6726 11.0243 26.1844C10.5361 25.6962 10.292 25.0877 10.292 24.3588V7.30787C10.292 6.57901 10.5361 5.97049 11.0243 5.48229C11.5125 4.9941 12.121 4.75 12.8499 4.75H29.9008C30.6296 4.75 31.2382 4.9941 31.7264 5.48229C32.2146 5.97049 32.4587 6.57901 32.4587 7.30787V24.3588C32.4587 25.0877 32.2146 25.6962 31.7264 26.1844C31.2382 26.6726 30.6296 26.9167 29.9008 26.9167H12.8499ZM21.3753 16.0162L24.542 14.1281L27.7087 16.0162V6.33333H21.3753V16.0162Z" fill="white"/>
</svg>
